<svg width="98" height="84" viewBox="0 0 98 84" fill="none" xmlns="http://www.w3.org/2000/svg">
<path d="M36.6609 0.0559124C36.8788 0.0550902 37.0967 0.054268 37.3213 0.0534209C37.9213 0.0512115 38.5213 0.0509331 39.1213 0.0510025C39.7703 0.0507423 40.4194 0.0486879 41.0685 0.0468901C42.4855 0.0433143 43.9025 0.0420602 45.3196 0.0412652C46.2059 0.0407524 47.0921 0.0397275 47.9784 0.0385959C50.4365 0.0355254 52.8945 0.032949 55.3526 0.0324921C55.5882 0.0324479 55.5882 0.0324479 55.8285 0.0324028C56.1469 0.0323453 56.4652 0.0322882 56.7836 0.0322315C56.9416 0.0322028 57.0996 0.0321741 57.2624 0.0321445C57.4206 0.0321162 57.5788 0.0320878 57.7418 0.0320586C60.3031 0.031503 62.8644 0.0272625 65.4257 0.02139C68.0609 0.0153968 70.6961 0.0123705 73.3313 0.0123232C74.8086 0.0122317 76.2859 0.0109186 77.7632 0.00635738C79.0216 0.0024899 80.2799 0.0013776 81.5382 0.00372715C82.1789 0.00484515 82.8196 0.00475139 83.4603 0.00115059C87.7802 -0.021648 91.4989 0.268568 94.7718 3.21392C95.592 4.00187 96.2549 4.76877 96.7923 5.75115C96.8507 5.85518 96.9092 5.95921 96.9694 6.06639C97.3074 6.68177 97.5746 7.28551 97.7927 7.94923C97.8478 8.05285 97.9028 8.15647 97.9595 8.26324C98.0004 8.98865 97.9904 9.71536 97.9908 10.4417C97.9928 10.6447 97.9948 10.8477 97.9969 11.0568C97.9974 11.3492 97.9974 11.3492 97.9979 11.6474C97.9986 11.8263 97.9993 12.0052 98 12.1895C97.9603 12.6499 97.8694 12.8951 97.626 13.2874C97.5637 13.6056 97.5637 13.6056 97.5426 13.9252C97.4593 14.5435 97.4593 14.5435 97.1258 15.0145C97.0655 15.3802 97.0095 15.7465 96.959 16.1135C96.904 16.1653 96.849 16.2171 96.7923 16.2705C96.7547 16.5889 96.7176 16.9074 96.6887 17.2267C96.6255 17.5266 96.6255 17.5266 96.292 17.8406C96.2253 18.2053 96.1687 18.5718 96.1253 18.9396C96.0152 18.9396 95.9052 18.9396 95.7918 18.9396C95.7976 19.0871 95.7976 19.0871 95.8035 19.2377C95.808 19.4301 95.808 19.4301 95.8127 19.6265C95.8165 19.754 95.8204 19.8815 95.8244 20.0129C95.7918 20.3527 95.7918 20.3527 95.4583 20.6667C95.3819 20.9763 95.3819 20.9763 95.3541 21.3143C95.3335 21.5151 95.3128 21.7159 95.2916 21.9227C95.1815 21.9227 95.0715 21.9227 94.9581 21.9227C94.962 22.0211 94.9658 22.1194 94.9698 22.2208C94.9743 22.4132 94.9743 22.4132 94.9789 22.6096C94.9828 22.7371 94.9867 22.8646 94.9906 22.996C94.9581 23.3358 94.9581 23.3358 94.6246 23.6498C94.4112 24.2407 94.2759 24.8074 94.2077 25.4259C94.1244 26.0048 94.1244 26.0048 93.7909 26.3189C93.7206 26.6234 93.7206 26.6234 93.6971 26.9567C93.6241 27.5749 93.6241 27.5749 93.4574 27.7319C93.4198 28.0503 93.3827 28.3688 93.3538 28.688C93.2906 28.988 93.2906 28.988 92.9571 29.302C92.8808 29.6116 92.8808 29.6116 92.8529 29.9496C92.8323 30.1504 92.8117 30.3512 92.7904 30.558C92.6803 30.558 92.5703 30.558 92.4569 30.558C92.4604 30.7329 92.4638 30.9077 92.4673 31.0879C92.4569 31.657 92.4569 31.657 92.2902 31.9711C92.1801 31.9711 92.0701 31.9711 91.9567 31.9711C91.9605 32.0603 91.9644 32.1496 91.9684 32.2415C91.9885 33.0505 91.903 33.7082 91.6232 34.4831C91.5682 34.6386 91.5131 34.794 91.4564 34.9542C91.3464 34.9542 91.2363 34.9542 91.1229 34.9542C91.1333 35.2019 91.1333 35.2019 91.1438 35.4546C91.1238 36.0295 91.0402 36.3267 90.7895 36.8382C90.5737 37.3761 90.4357 37.8684 90.3726 38.4377C90.2892 39.0363 90.2892 39.0363 89.9557 39.5073C89.8955 39.873 89.8395 40.2393 89.789 40.6063C89.734 40.6582 89.6789 40.71 89.6222 40.7634C89.5982 40.9415 89.5741 41.1196 89.5493 41.3031C89.4555 41.8624 89.4555 41.8624 89.122 42.1764C89.0518 42.481 89.0518 42.481 89.0282 42.8142C88.9553 43.4324 88.9553 43.4324 88.7885 43.5894C88.7509 43.9079 88.7139 44.2264 88.685 44.5456C88.6218 44.8455 88.6218 44.8455 88.2883 45.1595C88.1943 45.4709 88.1124 45.7855 88.0382 46.1015C87.8251 47.0087 87.8251 47.0087 87.4546 47.3576C87.3696 47.5773 87.2942 47.8003 87.2253 48.0248C87.0087 48.6707 86.7031 49.157 86.2873 49.7127C86.168 49.9711 86.0535 50.2319 85.9539 50.4977C85.8438 50.4977 85.7337 50.4977 85.6204 50.4977C85.5639 50.6619 85.5639 50.6619 85.5064 50.8295C85.239 51.3816 84.8627 51.8017 84.4427 52.2542C83.8916 52.8306 83.8916 52.8306 83.4527 53.4808C83.3426 53.4808 83.2326 53.4808 83.1192 53.4808C83.0676 53.6071 83.0676 53.6071 83.015 53.7359C82.6969 54.2532 82.2774 54.673 81.7852 55.0508C81.6752 55.0508 81.5651 55.0508 81.4517 55.0508C81.3967 55.2063 81.3417 55.3617 81.285 55.5219C81.1749 55.5219 81.0649 55.5219 80.9515 55.5219C80.9515 55.6255 80.9515 55.7291 80.9515 55.8359C80.2204 56.3069 80.2204 56.3069 79.7843 56.3069C79.7843 56.4105 79.7843 56.5141 79.7843 56.6209C78.0468 58.0798 75.6047 58.8702 73.448 59.604C73.3108 59.6507 73.1737 59.6975 73.0324 59.7457C72.1814 60.0243 71.3295 60.2237 70.4466 60.389C70.3144 60.4159 70.1822 60.4429 70.046 60.4706C68.439 60.7653 66.8493 60.7479 65.2195 60.7456C64.8972 60.7463 64.5749 60.7471 64.2525 60.7481C63.562 60.7499 62.8714 60.7508 62.1809 60.7509C61.0875 60.7512 59.9941 60.7541 58.9007 60.7573C56.1857 60.765 53.4707 60.7699 50.7556 60.7732C48.6435 60.7758 46.5314 60.7794 44.4193 60.7863C43.3338 60.7897 42.2484 60.7909 41.1629 60.7906C40.4862 60.7909 39.8095 60.7931 39.1327 60.7958C38.8206 60.7967 38.5085 60.7968 38.1963 60.796C36.1845 60.7914 34.2202 60.8015 32.4391 61.8119C32.006 62.0536 31.6076 62.2685 31.1371 62.4387C30.6696 62.6233 30.6301 62.7934 30.4278 63.2151C30.2627 63.2669 30.0976 63.3187 29.9276 63.3721C29.9276 63.4758 29.9276 63.5794 29.9276 63.6861C29.6475 63.9572 29.6475 63.9572 29.2814 64.2553C29.1015 64.404 29.1015 64.404 28.918 64.5558C28.5936 64.7852 28.5936 64.7852 28.2601 64.7852C28.2601 64.8888 28.2601 64.9924 28.2601 65.0992C27.347 65.8842 27.347 65.8842 26.9261 65.8842C26.9261 65.9878 26.9261 66.0915 26.9261 66.1982C26.6461 66.4693 26.6461 66.4693 26.28 66.7674C26.1001 66.9161 26.1001 66.9161 25.9166 67.0679C25.5922 67.2973 25.5922 67.2973 25.2587 67.2973C25.214 67.3977 25.1693 67.498 25.1232 67.6015C24.9252 67.9253 24.9252 67.9253 24.425 68.0823C24.3699 68.1859 24.3149 68.2895 24.2582 68.3963C24.2032 68.4999 24.1482 68.6035 24.0915 68.7103C23.9264 68.7621 23.7613 68.8139 23.5912 68.8673C23.5912 68.9709 23.5912 69.0746 23.5912 69.1813C23.3287 69.4248 23.3287 69.4248 22.9764 69.7014C22.5578 70.0349 22.1559 70.3675 21.7779 70.7416C21.4236 71.0654 21.4236 71.0654 21.0901 71.0654C21.0518 71.1544 21.0135 71.2435 20.9741 71.3352C20.6995 71.7873 20.3612 72.0593 19.9437 72.3999C19.5222 72.7459 19.1109 73.0852 18.7231 73.4646C18.4221 73.7345 18.4221 73.7345 18.0887 73.7345C18.0887 73.8381 18.0887 73.9417 18.0887 74.0485C17.958 74.0874 17.8273 74.1262 17.6926 74.1663C17.2388 74.3176 17.2388 74.3176 17.1019 74.6538C16.8858 75.0571 16.6323 75.2619 16.2649 75.5499C15.7737 75.9376 15.7737 75.9376 15.3159 76.3588C15.0872 76.5606 15.0872 76.5606 14.7538 76.5606C14.7091 76.661 14.6643 76.7614 14.6183 76.8648C14.4203 77.1886 14.4203 77.1886 13.92 77.3456C13.92 77.4492 13.92 77.5529 13.92 77.6596C13.2702 78.3034 12.6321 78.7559 11.7524 79.0727C11.5633 79.3893 11.5633 79.3893 11.4189 79.7007C11.2538 79.7525 11.0887 79.8043 10.9186 79.8577C10.8636 79.9613 10.8086 80.0649 10.7519 80.1717C10.6969 80.2753 10.6418 80.379 10.5851 80.4857C10.4201 80.5375 10.255 80.5893 10.0849 80.6427C10.0849 80.7464 10.0849 80.85 10.0849 80.9567C9.80482 81.2278 9.80482 81.2278 9.43876 81.5259C9.31882 81.6251 9.19889 81.7242 9.07531 81.8264C8.75094 82.0558 8.75094 82.0558 8.41745 82.0558C8.37726 82.1493 8.33706 82.2428 8.29565 82.3391C8.04181 82.7524 7.7897 82.9176 7.36487 83.1744C7.17497 83.2916 7.17497 83.2916 6.98123 83.4112C5.86524 84.0131 4.8519 84.0761 3.58185 83.9398C2.2275 83.5182 0.807078 82.6059 0.0802043 81.4278C-0.0202369 80.9613 -0.00720384 80.5179 0.0176749 80.0441C0.0212215 79.8615 0.0212215 79.8615 0.0248398 79.6752C0.0495857 78.7875 0.0495857 78.7875 0.246949 78.6017C0.30819 78.3674 0.362834 78.1316 0.413694 77.8951C0.561912 77.206 0.561912 77.206 0.747184 77.0316C0.778123 76.7902 0.801075 76.5479 0.820135 76.3055C0.896736 75.5166 1.01737 74.7649 1.42133 74.0583C1.59273 73.7105 1.62405 73.4673 1.64344 73.0868C1.69681 72.5173 1.83557 72.0784 2.08114 71.556C2.41947 70.8249 2.50468 70.1707 2.53578 69.3776C2.58138 69.0243 2.58138 69.0243 2.91487 68.7103C2.98513 68.4057 2.98513 68.4057 3.00866 68.0725C3.08161 67.4543 3.08161 67.4543 3.24836 67.2973C3.29556 66.8973 3.32309 66.4973 3.35192 66.0958C3.4151 65.7272 3.4151 65.7272 3.74859 65.4132C3.80989 65.0477 3.86572 64.6813 3.91534 64.3142C3.97036 64.2624 4.02539 64.2105 4.08208 64.1572C4.1291 63.7981 4.15675 63.4391 4.18565 63.0784C4.24883 62.7441 4.24883 62.7441 4.58232 62.4301C4.65258 62.1255 4.65258 62.1255 4.67611 61.7923C4.74906 61.1741 4.74906 61.1741 4.91581 61.017C4.96301 60.6171 4.99054 60.2171 5.01937 59.8156C5.08255 59.447 5.08255 59.447 5.41604 59.133C5.49243 58.8233 5.49243 58.8233 5.52026 58.4853C5.55121 58.1842 5.55121 58.1842 5.58279 57.8769C5.69284 57.8769 5.80289 57.8769 5.91628 57.8769C5.91434 57.7672 5.91241 57.6576 5.91042 57.5445C5.90891 57.4016 5.90741 57.2588 5.90586 57.1115C5.90392 56.9695 5.90199 56.8274 5.89999 56.681C5.91628 56.3069 5.91628 56.3069 6.08302 55.9929C6.19307 55.9929 6.30313 55.9929 6.41651 55.9929C6.41307 55.7889 6.40963 55.5849 6.40609 55.3747C6.40251 55.1621 6.40459 54.9492 6.41651 54.7368C6.47154 54.685 6.52656 54.6332 6.58326 54.5798C6.63061 54.1389 6.65804 53.698 6.68682 53.2557C6.75 52.8528 6.75 52.8528 7.08349 52.5388C7.14479 52.1732 7.20062 51.8068 7.25024 51.4397C7.30526 51.3879 7.36029 51.3361 7.41698 51.2827C7.47846 51.0222 7.53303 50.7602 7.58373 50.4977C7.73194 49.7301 7.73194 49.7301 7.91722 49.5557C7.95579 49.2444 7.99419 48.9331 8.0312 48.6216C8.09654 48.2229 8.2552 47.887 8.41745 47.5146C8.47575 47.1486 8.53176 46.7823 8.5842 46.4155C8.63922 46.3637 8.69425 46.3119 8.75094 46.2585C8.78851 45.9452 8.82558 45.6318 8.85451 45.3177C8.91769 45.0025 8.91769 45.0025 9.25118 44.5315C9.32687 44.1736 9.32687 44.1736 9.35539 43.7955C9.36786 43.6686 9.38033 43.5417 9.39317 43.411C9.40134 43.3144 9.40951 43.2179 9.41792 43.1184C9.52797 43.1184 9.63802 43.1184 9.75141 43.1184C9.74754 43.0201 9.74367 42.9217 9.73969 42.8204C9.73668 42.6921 9.73367 42.5637 9.73057 42.4315C9.7267 42.304 9.72283 42.1765 9.71884 42.0452C9.75141 41.7054 9.75141 41.7054 10.0849 41.3914C10.1554 41.0507 10.1554 41.0507 10.1787 40.675C10.2354 39.9936 10.2354 39.9936 10.4184 39.8213C10.456 39.5029 10.493 39.1844 10.522 38.8652C10.5851 38.5653 10.5851 38.5653 10.9186 38.2513C10.9772 37.9061 10.9772 37.9061 10.9916 37.5153C11.0974 36.3431 11.4445 35.5839 12.4193 34.7971C13.4861 34.1431 14.3129 34.0141 15.5875 34.1691C16.2054 34.4073 16.7592 34.6867 17.2549 35.1112C17.2549 35.2666 17.2549 35.422 17.2549 35.5822C17.365 35.5822 17.475 35.5822 17.5884 35.5822C18.0314 36.2948 18.1574 36.7985 18.0887 37.6232C18.0336 37.6751 17.9786 37.7269 17.9219 37.7803C17.8749 38.1393 17.8472 38.4983 17.8183 38.8591C17.7552 39.1933 17.7552 39.1933 17.4217 39.5073C17.345 39.8531 17.345 39.8531 17.3175 40.2335C17.305 40.3618 17.2925 40.4901 17.2797 40.6223C17.2674 40.7698 17.2674 40.7698 17.2549 40.9204C17.1449 40.9204 17.0348 40.9204 16.9214 40.9204C16.9283 41.092 16.9352 41.2636 16.9423 41.4404C16.9214 42.0194 16.9214 42.0194 16.588 42.4904C16.5123 42.8482 16.5123 42.8482 16.4837 43.2264C16.4713 43.3533 16.4588 43.4802 16.446 43.6109C16.4337 43.7557 16.4337 43.7557 16.4212 43.9035C16.3112 43.9035 16.2011 43.9035 16.0877 43.9035C16.0776 44.0263 16.0675 44.1492 16.0571 44.2757C16.0361 44.514 16.0361 44.514 16.0148 44.7572C15.9945 44.9949 15.9945 44.9949 15.9737 45.2374C15.921 45.6305 15.921 45.6305 15.7542 45.7875C15.707 46.1875 15.6795 46.5875 15.6507 46.989C15.5875 47.3576 15.5875 47.3576 15.254 47.6716C15.1837 47.9762 15.1837 47.9762 15.1602 48.3094C15.0872 48.9276 15.0872 48.9276 14.9205 49.0846C14.859 49.3451 14.8045 49.6071 14.7538 49.8697C14.6055 50.6372 14.6055 50.6372 14.4203 50.8117C14.3859 51.0202 14.3592 51.2298 14.3369 51.4397C14.2721 52.0503 14.2721 52.0503 14.0868 52.2247C14.0396 52.6247 14.0121 53.0247 13.9832 53.4262C13.92 53.7948 13.92 53.7948 13.5865 54.1088C13.5163 54.4134 13.5163 54.4134 13.4928 54.7466C13.4198 55.3649 13.4198 55.3649 13.2531 55.5219C13.1916 55.7824 13.137 56.0443 13.0863 56.3069C12.9381 57.0745 12.9381 57.0745 12.7528 57.2489C12.7183 57.4836 12.6917 57.7194 12.6694 57.9554C12.6046 58.6445 12.6046 58.6445 12.4193 58.819C12.3723 59.178 12.3447 59.5371 12.3158 59.8978C12.2526 60.232 12.2526 60.232 11.9191 60.546C11.8488 60.8506 11.8488 60.8506 11.8253 61.1839C11.7524 61.8021 11.7524 61.8021 11.5856 61.9591C11.548 62.2775 11.511 62.596 11.482 62.9152C11.4189 63.2151 11.4189 63.2151 11.0854 63.5291C11.0146 63.9059 11.0146 63.9059 10.9916 64.324C10.9348 65.0839 10.9348 65.0839 10.7519 65.2562C10.6906 65.4905 10.636 65.7263 10.5851 65.9627C10.4369 66.6518 10.4369 66.6518 10.2516 66.8262C10.2041 67.216 10.1769 67.6057 10.1481 67.997C10.0835 68.4049 9.95319 68.6628 9.75141 69.0243C9.6868 69.3894 9.62972 69.7557 9.58467 70.1234C9.47461 70.1234 9.36456 70.1234 9.25118 70.1234C9.25504 70.2217 9.25891 70.3201 9.2629 70.4214C9.26591 70.5497 9.26892 70.6781 9.27202 70.8103C9.27589 70.9378 9.27976 71.0653 9.28374 71.1966C9.25118 71.5364 9.25118 71.5364 8.91769 71.8504C8.84742 72.155 8.84742 72.155 8.82389 72.4883C8.75094 73.1065 8.75094 73.1065 8.5842 73.2635C8.57742 73.5251 8.57707 73.7869 8.5842 74.0485C8.69425 74.0485 8.8043 74.0485 8.91769 74.0485C8.96239 73.9481 9.0071 73.8477 9.05317 73.7443C9.25118 73.4205 9.25118 73.4205 9.75141 73.2635C9.75141 73.1598 9.75141 73.0562 9.75141 72.9495C10.0139 72.706 10.0139 72.706 10.3663 72.4294C10.7849 72.0959 11.1868 71.7633 11.5648 71.3892C11.9191 71.0654 11.9191 71.0654 12.2526 71.0654C12.3076 70.91 12.3626 70.7545 12.4193 70.5944C12.5294 70.5944 12.6394 70.5944 12.7528 70.5944C12.7528 70.4908 12.7528 70.3871 12.7528 70.2804C13.0153 70.0314 13.0153 70.0314 13.3677 69.7505C13.4891 69.6535 13.6106 69.5566 13.7357 69.4567C13.9095 69.3204 13.9095 69.3204 14.0868 69.1813C14.245 69.055 14.4032 68.9287 14.5662 68.7986C14.9205 68.5533 14.9205 68.5533 15.254 68.5533C15.2987 68.4529 15.3434 68.3525 15.3895 68.2491C15.5875 67.9253 15.5875 67.9253 16.0877 67.7683C16.1427 67.6647 16.1978 67.561 16.2545 67.4543C16.4212 67.1403 16.4212 67.1403 16.9214 66.9833C16.9214 66.8796 16.9214 66.776 16.9214 66.6692C17.2015 66.3982 17.2015 66.3982 17.5676 66.1001C17.7475 65.9513 17.7475 65.9513 17.931 65.7996C18.2554 65.5702 18.2554 65.5702 18.5889 65.5702C18.6439 65.4148 18.6989 65.2593 18.7556 65.0992C18.8657 65.0992 18.9757 65.0992 19.0891 65.0992C19.0891 64.9956 19.0891 64.8919 19.0891 64.7852C19.1992 64.7852 19.3092 64.7852 19.4226 64.7852C19.4226 64.6816 19.4226 64.5779 19.4226 64.4712C19.6968 64.2056 19.6968 64.2056 20.0583 63.9118C20.1763 63.8145 20.2943 63.7171 20.4159 63.6168C20.7566 63.3721 20.7566 63.3721 21.2568 63.2151C21.2568 63.1115 21.2568 63.0079 21.2568 62.9011C22.0023 62.2731 22.0023 62.2731 22.424 62.2731C22.4687 62.1727 22.5134 62.0723 22.5595 61.9689C22.7575 61.6451 22.7575 61.6451 23.2578 61.4881C23.2578 61.3844 23.2578 61.2808 23.2578 61.1741C23.5202 60.9306 23.5202 60.9306 23.8726 60.654C24.2912 60.3205 24.6931 59.9879 25.0711 59.6138C25.4254 59.29 25.4254 59.29 25.7589 59.29C25.814 59.1346 25.869 58.9791 25.9257 58.819C26.0357 58.819 26.1458 58.819 26.2592 58.819C26.2592 58.7153 26.2592 58.6117 26.2592 58.505C26.3555 58.4661 26.4518 58.4272 26.551 58.3872C26.9402 58.2069 26.9402 58.2069 27.2238 57.8941C27.895 57.2922 28.7624 56.989 29.5941 56.6209C29.7833 56.5329 29.7833 56.5329 29.9764 56.443C30.9303 56.015 31.9203 55.7551 32.9387 55.4955C33.413 55.3847 33.413 55.3847 33.7627 55.2078C34.3674 55.1662 34.9711 55.1381 35.5767 55.1128C36.2761 55.0963 36.2761 55.0963 36.9308 54.8938C37.3428 54.8783 37.7501 54.8723 38.1621 54.8732C38.2905 54.8729 38.419 54.8726 38.5513 54.8722C38.9842 54.8713 39.4171 54.8714 39.8499 54.8716C40.1594 54.8711 40.4689 54.8705 40.7784 54.8699C41.4465 54.8687 42.1146 54.8679 42.7827 54.8674C43.8411 54.8664 44.8995 54.8638 45.958 54.8609C46.3205 54.8599 46.683 54.8589 47.0455 54.8579C47.3179 54.8571 47.3179 54.8571 47.5958 54.8564C50.0602 54.8498 52.5247 54.8446 54.9891 54.8427C56.6506 54.8414 58.312 54.8378 59.9734 54.8318C60.852 54.8287 61.7305 54.8267 62.6091 54.8275C63.4377 54.8282 64.2662 54.826 65.0948 54.8217C65.3969 54.8206 65.6991 54.8206 66.0013 54.8217C68.7435 54.8311 72.063 54.5314 74.2817 52.8528C74.559 52.6948 74.8369 52.5378 75.1154 52.3818C75.2908 52.2684 75.4662 52.1551 75.6469 52.0383C76.1159 51.7537 76.1159 51.7537 76.4494 51.7537C76.4941 51.6533 76.5388 51.553 76.5849 51.4495C76.7829 51.1257 76.7829 51.1257 77.2831 50.9687C77.2831 50.8651 77.2831 50.7615 77.2831 50.6547C78.0005 49.9062 78.0005 49.9062 78.6171 49.7127C78.6618 49.6058 78.7065 49.4989 78.7526 49.3888C78.942 48.9475 79.1426 48.6713 79.4508 48.2996C79.8251 47.8457 80.1004 47.4415 80.2845 46.8866C80.3946 46.8866 80.5046 46.8866 80.618 46.8866C80.673 46.6275 80.7281 46.3684 80.7848 46.1015C80.8948 46.1015 81.0049 46.1015 81.1182 46.1015C81.1045 45.9752 81.0907 45.849 81.0766 45.7188C81.1163 45.1859 81.2026 44.9408 81.4413 44.4726C81.7309 43.9024 81.8515 43.4394 81.9051 42.8142C81.9924 42.2113 82.2298 41.6464 82.4522 41.0774C82.5623 41.0774 82.6723 41.0774 82.7857 41.0774C82.7818 40.9808 82.778 40.8843 82.774 40.7848C82.771 40.6579 82.768 40.531 82.7649 40.4003C82.761 40.2746 82.7571 40.1489 82.7531 40.0194C82.7857 39.6643 82.7857 39.6643 83.1192 39.1933C83.1849 38.8284 83.2417 38.462 83.2859 38.0943C83.396 38.0943 83.506 38.0943 83.6194 38.0943C83.6156 37.9959 83.6117 37.8975 83.6077 37.7962C83.6047 37.6679 83.6017 37.5396 83.5986 37.4074C83.5947 37.2799 83.5908 37.1524 83.5869 37.021C83.6194 36.6812 83.6194 36.6812 83.9529 36.3672C84.1663 35.7763 84.3016 35.2096 84.3698 34.5911C84.4531 34.0121 84.4531 34.0121 84.7866 33.6981C84.8534 33.3334 84.91 32.9669 84.9534 32.5991C85.0634 32.5991 85.1735 32.5991 85.2869 32.5991C85.283 32.4894 85.2791 32.3797 85.2751 32.2667C85.2721 32.1238 85.2691 31.9809 85.266 31.8337C85.2602 31.6206 85.2602 31.6206 85.2543 31.4031C85.2869 31.029 85.2869 31.029 85.6204 30.715C85.6871 30.3503 85.7437 29.9838 85.7871 29.616C85.8972 29.616 86.0072 29.616 86.1206 29.616C86.1167 29.5063 86.1129 29.3966 86.1089 29.2836C86.1044 29.0692 86.1044 29.0692 86.0998 28.8506C86.094 28.6375 86.094 28.6375 86.088 28.42C86.1206 28.0459 86.1206 28.0459 86.4541 27.7319C86.5154 27.3664 86.5712 27 86.6208 26.6329C86.6759 26.5811 86.7309 26.5292 86.7876 26.4759C86.8529 26.2385 86.9109 25.9994 86.9647 25.7595C86.9942 25.6298 87.0236 25.5001 87.054 25.3664C87.0761 25.2662 87.0983 25.166 87.1211 25.0628C87.2311 25.0628 87.3412 25.0628 87.4546 25.0628C87.4494 24.7957 87.4494 24.7957 87.4441 24.5231C87.4546 23.9638 87.4546 23.9638 87.6213 23.8068C87.6589 23.4884 87.696 23.1698 87.7249 22.8506C87.788 22.5507 87.788 22.5507 88.1215 22.2367C88.1979 21.927 88.1979 21.927 88.2258 21.5891C88.2464 21.3883 88.267 21.1875 88.2883 20.9807C88.3983 20.9807 88.5084 20.9807 88.6218 20.9807C88.6115 20.6844 88.6115 20.6844 88.6009 20.3821C88.5819 19.836 88.6119 19.7386 88.9553 19.2536C89.0118 18.8874 89.0674 18.521 89.122 18.1546C89.2332 17.9452 89.3443 17.7359 89.4555 17.5266C89.5148 17.1607 89.5708 16.7944 89.6222 16.4275C89.6773 16.3757 89.7323 16.3239 89.789 16.2705C89.8131 16.0924 89.8371 15.9143 89.8619 15.7308C89.9557 15.1715 89.9557 15.1715 90.2892 14.8575C90.3278 14.5562 90.3658 14.2548 90.398 13.9528C90.4927 13.3789 90.6813 12.6042 91.1229 12.1884C91.1742 11.6829 91.1694 11.1749 91.1751 10.6674C91.1799 10.5262 91.1847 10.385 91.1897 10.2396C91.1989 9.33344 91.0908 8.82917 90.456 8.10623C89.9557 7.36606 89.9557 7.36606 89.9557 7.00719C89.8457 6.96833 89.7356 6.92948 89.6222 6.88944C89.122 6.69318 89.122 6.69318 88.5598 6.37182C87.6091 5.92548 86.6538 5.97872 85.6113 5.98647C85.3932 5.9856 85.1752 5.98473 84.9505 5.98384C84.3477 5.98153 83.745 5.98311 83.1423 5.98536C82.4912 5.98711 81.8401 5.98523 81.189 5.98382C79.9142 5.98163 78.6394 5.98282 77.3646 5.98518C75.8786 5.98783 74.3926 5.98732 72.9065 5.98674C70.2534 5.98581 67.6003 5.98804 64.9472 5.99191C62.3762 5.99566 59.8052 5.99678 57.2341 5.99513C54.4322 5.99334 51.6303 5.99304 48.8283 5.9953C48.5291 5.99554 48.2298 5.99578 47.9305 5.99602C47.7833 5.99614 47.6361 5.99626 47.4844 5.99638C46.4501 5.99712 45.4159 5.99683 44.3816 5.99617C43.1193 5.99539 41.857 5.99634 40.5946 5.99945C39.9513 6.00099 39.3081 6.00181 38.6648 6.00056C37.9654 5.99924 37.2661 6.0016 36.5667 6.00429C36.3661 6.00335 36.1656 6.00241 35.959 6.00143C33.9966 6.0151 32.1394 6.29927 30.4278 7.23289C30.3115 7.2929 30.1952 7.35291 30.0754 7.41473C29.544 7.69224 29.0318 7.98391 28.5311 8.30801C28.0934 8.57725 28.0934 8.57725 27.7599 8.57725C27.7048 8.73268 27.6498 8.88812 27.5931 9.04826C27.2701 9.39171 27.2701 9.39171 26.9261 9.67629C26.8161 9.67629 26.706 9.67629 26.5927 9.67629C26.5359 9.80258 26.5359 9.80258 26.478 9.93142C26.2592 10.3043 26.2592 10.3043 25.8527 10.7459C25.4064 11.2349 25.1818 11.7466 24.9252 12.3454C24.8132 12.5267 24.6985 12.7066 24.5813 12.8851C24.2141 13.4679 24.0725 14.0397 23.9247 14.7005C23.8147 14.7005 23.7046 14.7005 23.5912 14.7005C23.5951 14.8292 23.599 14.9579 23.603 15.0905C23.606 15.2597 23.609 15.4289 23.6121 15.6032C23.616 15.7708 23.6198 15.9384 23.6238 16.1111C23.5911 16.5868 23.4871 16.8008 23.2578 17.2125C23.2053 17.5977 23.2053 17.5977 23.2161 17.9976C23.2152 18.1303 23.2143 18.2631 23.2135 18.3999C23.2608 18.8092 23.3953 19.0473 23.5912 19.4106C23.6368 19.7712 23.6368 19.7712 23.6538 20.1564C23.714 20.8572 23.899 21.3428 24.2621 21.9515C24.425 22.2367 24.425 22.2367 24.6021 22.7568C24.7236 23.1829 24.7236 23.1829 25.0294 23.4339C25.1051 23.5051 25.1807 23.5764 25.2587 23.6498C25.2587 23.857 25.2587 24.0643 25.2587 24.2778C25.4238 24.3296 25.5888 24.3814 25.7589 24.4348C25.7589 24.5384 25.7589 24.642 25.7589 24.7488C25.869 24.7488 25.979 24.7488 26.0924 24.7488C26.0924 24.8524 26.0924 24.9561 26.0924 25.0628C26.2575 25.1146 26.4226 25.1664 26.5927 25.2198C26.5927 25.3234 26.5927 25.4271 26.5927 25.5338C26.6855 25.5727 26.7784 25.6115 26.874 25.6516C27.2596 25.8478 27.2596 25.8478 27.6315 26.1392C28.1325 26.5044 28.6326 26.7666 29.198 27.0352C29.3859 27.1261 29.5738 27.2169 29.7673 27.3106C31.459 28.0231 33.0626 28.1136 34.8856 28.1104C35.3211 28.1097 35.7565 28.1119 36.192 28.1149C37.2724 28.1216 38.3528 28.1233 39.4332 28.1253C40.3496 28.1271 41.266 28.1308 42.1824 28.137C42.6095 28.1391 43.0366 28.1385 43.4637 28.1377C43.7273 28.1392 43.991 28.1408 44.2547 28.1425C44.4303 28.1411 44.4303 28.1411 44.6094 28.1396C45.4935 28.1498 46.1382 28.3389 46.9355 28.6739C47.3211 29.0468 47.3211 29.0468 47.6025 29.459C47.747 29.6241 47.747 29.6241 47.8943 29.7926C48.2165 30.4904 48.2016 31.2205 48.1027 31.9711C47.9927 32.0747 47.8826 32.1783 47.7693 32.2851C47.6925 32.6309 47.6925 32.6309 47.665 33.0112C47.6526 33.1395 47.6401 33.2678 47.6273 33.4C47.6191 33.4984 47.6109 33.5968 47.6025 33.6981C47.4925 33.6981 47.3824 33.6981 47.269 33.6981C47.269 33.9054 47.269 34.1126 47.269 34.3261C47.4526 34.2391 47.6361 34.1521 47.8253 34.0624C48.6709 33.6645 49.5221 33.2779 50.3746 32.8935C50.6235 32.7812 50.6235 32.7812 50.8773 32.6668C52.194 32.0754 53.5187 31.502 54.8501 30.9406C55.8381 30.5225 56.8075 30.0764 57.774 29.616C58.0168 29.5023 58.2597 29.3888 58.5028 29.2756C58.6156 29.2229 58.7283 29.1701 58.8444 29.1158C59.0732 29.0089 59.302 28.9022 59.531 28.7957C60.0221 28.5656 60.485 28.3328 60.9421 28.0459C60.7852 27.9512 60.6283 27.8565 60.4666 27.7589C60.2569 27.6321 60.0472 27.5054 59.8374 27.3786C59.7345 27.3165 59.6315 27.2544 59.5254 27.1904C59.3723 27.0978 59.3723 27.0978 59.216 27.0033C59.1138 26.9415 59.0115 26.8797 58.9061 26.8161C58.6272 26.6449 58.3528 26.4674 58.0788 26.2894C57.6595 26.0364 57.3042 25.8786 56.836 25.7301C55.9814 25.4201 55.2806 24.9881 54.5289 24.4998C52.7333 23.3348 50.8715 22.2415 48.9365 21.2947C45.9992 19.8503 45.9992 19.8503 45.2681 18.3116C45.1411 17.4596 45.3321 16.8642 45.7683 16.1135C46.4631 15.398 47.4587 15.0959 48.4362 14.8575C49.0303 14.8575 49.0303 14.8575 49.6035 15.0145C49.7163 15.0448 49.8291 15.0752 49.9454 15.1065C51.6289 15.6446 53.115 16.7198 54.5628 17.6695C55.1566 18.0584 55.6949 18.3567 56.3775 18.5863C57.517 18.9856 58.4666 19.6672 59.4624 20.3103C59.9318 20.6097 60.4089 20.8945 60.89 21.1769C61.0454 21.2684 61.2008 21.3599 61.3609 21.4541C61.8552 21.73 62.3675 21.964 62.8838 22.2011C63.9466 22.6967 64.9443 23.2669 65.9445 23.8657C66.1188 23.9693 66.2932 24.073 66.4729 24.1799C66.9645 24.473 67.4552 24.7676 67.9454 25.0628C68.0654 25.1348 68.1854 25.2067 68.3091 25.2808C70.537 26.6211 70.537 26.6211 70.952 27.4455C71.211 28.5572 70.9495 29.2191 70.3632 30.1851C69.2668 31.1658 67.7579 31.6534 66.3828 32.1949C65.3815 32.6039 64.4147 33.0729 63.4433 33.5411C62.6893 33.903 61.9302 34.2488 61.161 34.5813C60.1638 35.0124 59.1713 35.4525 58.1804 35.8962C58.0283 35.9642 57.8762 36.0323 57.7195 36.1024C56.9189 36.462 56.1243 36.8295 55.3353 37.2111C54.7273 37.5022 54.1251 37.7378 53.4803 37.9471C52.9261 38.1274 52.4563 38.3174 51.9691 38.6242C51.2099 39.1012 50.3868 39.4068 49.5468 39.7367C48.3085 40.2269 47.0925 40.7627 45.8934 41.3325C45.7593 41.395 45.6251 41.4576 45.4869 41.522C45.2374 41.6407 44.9905 41.7643 44.747 41.8937C43.6313 42.4441 42.505 42.4956 41.2662 42.3334C40.7128 42.1305 40.2421 41.8808 39.7655 41.5484C39.7655 41.4448 39.7655 41.3411 39.7655 41.2344C39.6554 41.2344 39.5454 41.2344 39.432 41.2344C39.377 40.9753 39.322 40.7162 39.2653 40.4493C39.1552 40.4493 39.0452 40.4493 38.9318 40.4493C38.9318 39.9312 38.9318 39.4131 38.9318 38.8793C39.0418 38.8793 39.1519 38.8793 39.2653 38.8793C39.2601 38.5781 39.2601 38.5781 39.2548 38.2709C39.2444 37.6625 39.2444 37.6625 39.432 37.3092C39.5421 37.3092 39.6521 37.3092 39.7655 37.3092C39.7636 37.2091 39.7616 37.1089 39.7596 37.0057C39.7581 36.8759 39.7566 36.7462 39.7551 36.6125C39.7531 36.4832 39.7512 36.3539 39.7492 36.2206C39.7655 35.8962 39.7655 35.8962 39.9322 35.7392C39.9793 35.3801 40.0069 35.0211 40.0358 34.6604C40.099 34.3261 40.099 34.3261 40.4325 34.0121C40.2226 34.0098 40.0128 34.0075 39.7966 34.0052C39.001 33.9959 38.2054 33.9838 37.4098 33.9709C37.0687 33.9658 36.7275 33.9613 36.3864 33.9577C33.5603 33.927 30.6058 33.8574 27.9266 32.9131C27.8009 32.8718 27.6751 32.8305 27.5456 32.788C25.6597 32.1297 23.8705 31.2546 22.424 29.93C22.2761 29.8199 22.1283 29.7098 21.9759 29.5963C21.5363 29.2607 21.14 28.9089 20.7566 28.5169C20.7566 28.4133 20.7566 28.3097 20.7566 28.2029C20.5915 28.1511 20.4264 28.0993 20.2563 28.0459C19.6681 27.4562 19.1443 26.8363 19.0891 26.0048C18.9791 26.0048 18.869 26.0048 18.7556 26.0048C18.7013 25.9006 18.6469 25.7964 18.5908 25.689C18.1454 24.8325 18.1454 24.8325 17.6301 24.0128C17.3573 23.5376 17.3295 23.0824 17.2549 22.5507C17.1449 22.4471 17.0348 22.3435 16.9214 22.2367C16.8583 21.9025 16.8583 21.9025 16.8277 21.5204C16.824 21.0465 16.824 21.0465 16.588 20.6667C16.5732 20.2709 16.5687 19.8794 16.5717 19.4836C16.5719 19.3653 16.5721 19.2471 16.5724 19.1252C16.5733 18.7461 16.5754 18.3669 16.5775 17.9878C16.5784 17.7313 16.5791 17.4748 16.5798 17.2184C16.5817 16.5884 16.5845 15.9584 16.588 15.3285C16.698 15.3285 16.8081 15.3285 16.9214 15.3285C16.9176 15.2188 16.9137 15.1091 16.9097 14.9961C16.9067 14.8532 16.9037 14.7103 16.9006 14.5631C16.8967 14.421 16.8929 14.2789 16.8889 14.1325C16.9214 13.7584 16.9214 13.7584 17.2549 13.4444C17.3217 13.0797 17.3783 12.7132 17.4217 12.3454C17.5317 12.3454 17.6418 12.3454 17.7552 12.3454C17.7483 12.2223 17.7414 12.0993 17.7343 11.9725C17.7552 11.5604 17.7552 11.5604 18.0887 11.2463C18.2092 10.9369 18.3294 10.6274 18.4476 10.3172C18.6502 9.84856 18.9479 9.46132 19.2559 9.04826C19.3725 8.85962 19.4871 8.66987 19.5998 8.47912C19.8532 8.06341 20.0874 7.68044 20.4231 7.3212C20.5331 7.3212 20.6432 7.3212 20.7566 7.3212C20.7566 7.16577 20.7566 7.01033 20.7566 6.85019C20.8666 6.85019 20.9767 6.85019 21.0901 6.85019C21.152 6.70447 21.152 6.70447 21.2151 6.5558C21.4631 6.1588 21.6631 6.10938 22.0905 5.90816C22.1393 5.81283 22.1881 5.7175 22.2384 5.61929C22.7108 4.75623 23.7248 4.18789 24.5917 3.71008C24.829 3.53143 25.0651 3.35136 25.3004 3.17037C25.9087 2.71953 26.4861 2.40466 27.2023 2.13328C27.5977 1.98679 27.5977 1.98679 27.9839 1.79842C30.6324 0.555396 33.7279 0.0503727 36.6609 0.0559124Z" fill="#0580CC"/>
</svg>
