<svg width="39" height="35" viewBox="0 0 39 35" fill="none" xmlns="http://www.w3.org/2000/svg">
<path d="M14.5896 0.0232968C14.6763 0.0229542 14.763 0.0226117 14.8523 0.0222587C15.0911 0.0213381 15.3299 0.0212221 15.5687 0.0212511C15.827 0.0211426 16.0853 0.0202866 16.3436 0.0195376C16.9075 0.0180476 17.4714 0.0175251 18.0353 0.0171938C18.388 0.0169802 18.7407 0.0165531 19.0934 0.0160816C20.0717 0.0148022 21.0499 0.0137287 22.0281 0.0135384C22.1218 0.0135199 22.1218 0.0135199 22.2175 0.0135012C22.3442 0.0134772 22.4709 0.0134534 22.5976 0.0134298C22.6604 0.0134178 22.7233 0.0134059 22.7881 0.0133936C22.8511 0.0133817 22.914 0.0133699 22.9789 0.0133578C23.9982 0.0131263 25.0175 0.0113594 26.0368 0.00891249C27.0855 0.00641535 28.1342 0.00515439 29.1829 0.00513467C29.7708 0.00509656 30.3587 0.00454942 30.9466 0.00264891C31.4474 0.00103746 31.9481 0.000574 32.4489 0.00155298C32.7039 0.00201881 32.9588 0.00197974 33.2138 0.000479414C34.9329 -0.00901998 36.4128 0.111903 37.7153 1.33913C38.0417 1.66744 38.3055 1.98699 38.5194 2.39631C38.5426 2.43966 38.5659 2.483 38.5899 2.52766C38.7244 2.78407 38.8307 3.03563 38.9175 3.31218C38.9394 3.35535 38.9613 3.39853 38.9839 3.44302C39.0002 3.74527 38.9962 4.04807 38.9963 4.3507C38.9971 4.43528 38.9979 4.51987 38.9988 4.60701C38.999 4.72883 38.999 4.72883 38.9992 4.8531C38.9994 4.92764 38.9997 5.00217 39 5.07897C38.9842 5.27077 38.948 5.37294 38.8512 5.53642C38.8264 5.66898 38.8264 5.66898 38.818 5.80218C38.7848 6.05977 38.7848 6.05977 38.6521 6.25603C38.6281 6.4084 38.6058 6.56105 38.5857 6.71396C38.5638 6.73555 38.5419 6.75714 38.5194 6.77938C38.5044 6.91205 38.4897 7.04477 38.4782 7.17777C38.453 7.30273 38.453 7.30273 38.3203 7.43357C38.2937 7.58552 38.2712 7.73825 38.2539 7.8915C38.2102 7.8915 38.1664 7.8915 38.1212 7.8915C38.1235 7.95298 38.1235 7.95298 38.1259 8.01569C38.1277 8.09589 38.1277 8.09589 38.1295 8.17771C38.1311 8.23084 38.1326 8.28396 38.1342 8.3387C38.1212 8.48027 38.1212 8.48027 37.9885 8.61111C37.9581 8.74014 37.9581 8.74014 37.947 8.88096C37.9388 8.96462 37.9306 9.04827 37.9222 9.13446C37.8784 9.13446 37.8346 9.13446 37.7894 9.13446C37.791 9.17545 37.7925 9.21643 37.7941 9.25865C37.7959 9.33885 37.7959 9.33885 37.7977 9.42067C37.7993 9.4738 37.8008 9.52692 37.8024 9.58166C37.7894 9.72323 37.7894 9.72323 37.6567 9.85407C37.5718 10.1003 37.518 10.3364 37.4908 10.5941C37.4577 10.8354 37.4577 10.8354 37.3249 10.9662C37.297 11.0931 37.297 11.0931 37.2876 11.232C37.2586 11.4895 37.2586 11.4895 37.1922 11.555C37.1773 11.6876 37.1625 11.8203 37.151 11.9534C37.1259 12.0783 37.1259 12.0783 36.9932 12.2091C36.9628 12.3382 36.9628 12.3382 36.9517 12.479C36.9435 12.5627 36.9353 12.6463 36.9268 12.7325C36.883 12.7325 36.8392 12.7325 36.7941 12.7325C36.7954 12.8054 36.7968 12.8782 36.7982 12.9533C36.7941 13.1904 36.7941 13.1904 36.7277 13.3213C36.6839 13.3213 36.6401 13.3213 36.595 13.3213C36.5965 13.3585 36.5981 13.3956 36.5997 13.434C36.6077 13.771 36.5736 14.0451 36.4623 14.368C36.4404 14.4327 36.4185 14.4975 36.3959 14.5642C36.3521 14.5642 36.3083 14.5642 36.2632 14.5642C36.2673 14.6674 36.2673 14.6674 36.2715 14.7728C36.2635 15.0123 36.2303 15.1361 36.1305 15.3493C36.0446 15.5734 35.9897 15.7785 35.9646 16.0157C35.9314 16.2651 35.9314 16.2651 35.7987 16.4614C35.7747 16.6138 35.7525 16.7664 35.7324 16.9193C35.7105 16.9409 35.6886 16.9625 35.666 16.9847C35.6564 17.0589 35.6468 17.1331 35.637 17.2096C35.5996 17.4427 35.5996 17.4427 35.4669 17.5735C35.439 17.7004 35.439 17.7004 35.4296 17.8393C35.4006 18.0969 35.4006 18.0969 35.3342 18.1623C35.3193 18.2949 35.3045 18.4277 35.293 18.5607C35.2679 18.6856 35.2679 18.6856 35.1351 18.8165C35.0978 18.9462 35.0651 19.0773 35.0356 19.209C34.9508 19.5869 34.9508 19.5869 34.8033 19.7323C34.7696 19.8239 34.7395 19.9168 34.7121 20.0104C34.6259 20.2795 34.5043 20.4821 34.3388 20.7136C34.2913 20.8213 34.2458 20.93 34.2061 21.0407C34.1623 21.0407 34.1185 21.0407 34.0734 21.0407C34.051 21.1091 34.051 21.1091 34.028 21.179C33.9216 21.409 33.7719 21.584 33.6048 21.7726C33.3854 22.0127 33.3854 22.0127 33.2108 22.2837C33.167 22.2837 33.1232 22.2837 33.078 22.2837C33.0575 22.3363 33.0575 22.3363 33.0366 22.39C32.91 22.6055 32.7431 22.7804 32.5472 22.9379C32.5034 22.9379 32.4596 22.9379 32.4145 22.9379C32.3926 23.0026 32.3707 23.0674 32.3481 23.1341C32.3043 23.1341 32.2605 23.1341 32.2154 23.1341C32.2154 23.1773 32.2154 23.2205 32.2154 23.2649C31.9244 23.4612 31.9244 23.4612 31.7509 23.4612C31.7509 23.5044 31.7509 23.5476 31.7509 23.592C31.0594 24.1999 30.0876 24.5293 29.2293 24.835C29.1747 24.8545 29.1202 24.874 29.0639 24.894C28.7253 25.0101 28.3862 25.0932 28.0349 25.1621C27.9822 25.1733 27.9296 25.1845 27.8754 25.1961C27.2359 25.3189 26.6033 25.3116 25.9547 25.3107C25.8264 25.311 25.6982 25.3113 25.5699 25.3117C25.2951 25.3125 25.0203 25.3128 24.7455 25.3129C24.3103 25.313 23.8752 25.3142 23.4401 25.3155C22.3596 25.3188 21.2791 25.3208 20.1987 25.3222C19.3581 25.3233 18.5176 25.3248 17.6771 25.3276C17.2451 25.329 16.8131 25.3296 16.3812 25.3294C16.1118 25.3295 15.8425 25.3304 15.5732 25.3316C15.449 25.332 15.3248 25.332 15.2006 25.3317C14.3999 25.3298 13.6183 25.334 12.9095 25.755C12.7371 25.8557 12.5786 25.9452 12.3913 26.0161C12.2052 26.093 12.1895 26.1639 12.109 26.3396C12.0433 26.3612 11.9776 26.3828 11.9099 26.4051C11.9099 26.4482 11.9099 26.4914 11.9099 26.5359C11.7985 26.6488 11.7985 26.6488 11.6528 26.773C11.5812 26.835 11.5812 26.835 11.5082 26.8982C11.3791 26.9938 11.3791 26.9938 11.2464 26.9938C11.2464 27.037 11.2464 27.0802 11.2464 27.1247C10.883 27.4518 10.883 27.4518 10.7155 27.4518C10.7155 27.4949 10.7155 27.5381 10.7155 27.5826C10.604 27.6955 10.604 27.6955 10.4584 27.8197C10.3868 27.8817 10.3868 27.8817 10.3137 27.945C10.1846 28.0405 10.1846 28.0405 10.0519 28.0405C10.0341 28.0824 10.0163 28.1242 9.99801 28.1673C9.91921 28.3022 9.91921 28.3022 9.72014 28.3676C9.69824 28.4108 9.67634 28.454 9.65378 28.4985C9.63188 28.5416 9.60999 28.5848 9.58743 28.6293C9.52173 28.6509 9.45604 28.6725 9.38835 28.6947C9.38835 28.7379 9.38835 28.7811 9.38835 28.8256C9.28389 28.927 9.28389 28.927 9.14366 29.0423C8.97707 29.1812 8.81713 29.3198 8.66671 29.4757C8.5257 29.6106 8.5257 29.6106 8.39299 29.6106C8.37776 29.6477 8.36253 29.6848 8.34685 29.723C8.23757 29.9114 8.10292 30.0247 7.93678 30.1666C7.76905 30.3108 7.60534 30.4522 7.45102 30.6103C7.33126 30.7227 7.33126 30.7227 7.19855 30.7227C7.19855 30.7659 7.19855 30.8091 7.19855 30.8535C7.14654 30.8697 7.09453 30.8859 7.04095 30.9026C6.86035 30.9657 6.86035 30.9657 6.80585 31.1058C6.71984 31.2738 6.61899 31.3591 6.47276 31.4791C6.2773 31.6407 6.2773 31.6407 6.09509 31.8162C6.00411 31.9002 6.00411 31.9002 5.87139 31.9002C5.8536 31.9421 5.83581 31.9839 5.81748 32.027C5.73868 32.1619 5.73868 32.1619 5.53961 32.2273C5.53961 32.2705 5.53961 32.3137 5.53961 32.3582C5.28099 32.6264 5.02706 32.815 4.67696 32.9469C4.60174 33.0789 4.60174 33.0789 4.54424 33.2086C4.47855 33.2302 4.41285 33.2518 4.34517 33.274C4.32327 33.3172 4.30137 33.3604 4.27881 33.4049C4.25691 33.4481 4.23501 33.4912 4.21245 33.5357C4.14676 33.5573 4.08106 33.5789 4.01338 33.6011C4.01338 33.6443 4.01338 33.6875 4.01338 33.732C3.90192 33.8449 3.90192 33.8449 3.75624 33.9691C3.70851 34.0104 3.66078 34.0518 3.6116 34.0943C3.48252 34.1899 3.48252 34.1899 3.3498 34.1899C3.33381 34.2289 3.31781 34.2678 3.30133 34.308C3.20031 34.4802 3.09998 34.549 2.93092 34.656C2.85535 34.7048 2.85535 34.7048 2.77824 34.7547C2.33413 35.0055 1.93086 35.0317 1.42543 34.9749C0.886456 34.7993 0.321184 34.4191 0.031918 33.9282C-0.00805345 33.7339 -0.00286683 33.5491 0.0070339 33.3517C0.0084453 33.2756 0.0084453 33.2756 0.00988521 33.198C0.0197331 32.8281 0.0197331 32.8281 0.0982757 32.7507C0.122647 32.6531 0.144393 32.5548 0.164633 32.4563C0.223618 32.1692 0.223618 32.1692 0.297349 32.0965C0.309661 31.9959 0.318795 31.895 0.32638 31.7939C0.356864 31.4652 0.40487 31.152 0.565631 30.8576C0.63384 30.7127 0.646308 30.6114 0.654021 30.4528C0.675262 30.2155 0.730481 30.0327 0.82821 29.815C0.96285 29.5104 0.99676 29.2378 1.00914 28.9073C1.02728 28.7601 1.02728 28.7601 1.16 28.6293C1.18796 28.5024 1.18796 28.5024 1.19732 28.3635C1.22636 28.1059 1.22636 28.1059 1.29271 28.0405C1.3115 27.8739 1.32245 27.7072 1.33393 27.5399C1.35907 27.3863 1.35907 27.3863 1.49179 27.2555C1.51618 27.1032 1.5384 26.9505 1.55814 26.7976C1.58004 26.776 1.60194 26.7544 1.6245 26.7321C1.64321 26.5825 1.65422 26.4329 1.66572 26.2826C1.69086 26.1434 1.69086 26.1434 1.82358 26.0125C1.85154 25.8856 1.85154 25.8856 1.8609 25.7468C1.88993 25.4892 1.88993 25.4892 1.95629 25.4238C1.97507 25.2571 1.98603 25.0905 1.99751 24.9232C2.02265 24.7696 2.02265 24.7696 2.15536 24.6387C2.18576 24.5097 2.18576 24.5097 2.19684 24.3689C2.20916 24.2434 2.20916 24.2434 2.22172 24.1154C2.26552 24.1154 2.30931 24.1154 2.35444 24.1154C2.35367 24.0697 2.3529 24.024 2.3521 23.9769C2.35151 23.9173 2.35091 23.8578 2.35029 23.7965C2.34952 23.7373 2.34875 23.6781 2.34796 23.6171C2.35444 23.4612 2.35444 23.4612 2.42079 23.3304C2.46459 23.3304 2.50839 23.3304 2.55351 23.3304C2.55214 23.2454 2.55077 23.1604 2.54936 23.0728C2.54794 22.9842 2.54877 22.8955 2.55351 22.807C2.57541 22.7854 2.59731 22.7638 2.61987 22.7416C2.63871 22.5579 2.64963 22.3742 2.66108 22.1899C2.68623 22.022 2.68623 22.022 2.81894 21.8911C2.84333 21.7388 2.86555 21.5862 2.8853 21.4332C2.9072 21.4116 2.92909 21.39 2.95166 21.3678C2.97612 21.2593 2.99784 21.1501 3.01801 21.0407C3.077 20.7209 3.077 20.7209 3.15073 20.6482C3.16608 20.5185 3.18136 20.3888 3.19609 20.259C3.22209 20.0929 3.28523 19.9529 3.3498 19.7977C3.373 19.6453 3.39529 19.4926 3.41616 19.3398C3.43806 19.3182 3.45996 19.2966 3.48252 19.2744C3.49747 19.1439 3.51222 19.0133 3.52373 18.8824C3.54888 18.751 3.54888 18.751 3.68159 18.5548C3.71171 18.4057 3.71171 18.4057 3.72306 18.2481C3.72803 18.1953 3.73299 18.1424 3.7381 18.0879C3.74135 18.0477 3.7446 18.0075 3.74795 17.966C3.79174 17.966 3.83554 17.966 3.88066 17.966C3.87912 17.925 3.87758 17.884 3.876 17.8418C3.8748 17.7884 3.8736 17.7349 3.87237 17.6798C3.87083 17.6267 3.86929 17.5735 3.8677 17.5188C3.88066 17.3772 3.88066 17.3772 4.01338 17.2464C4.04145 17.1044 4.04145 17.1044 4.05071 16.9479C4.07329 16.664 4.07329 16.664 4.14609 16.5922C4.16105 16.4595 4.1758 16.3268 4.18731 16.1938C4.21245 16.0689 4.21245 16.0689 4.34517 15.938C4.36848 15.7942 4.36848 15.7942 4.3742 15.6314C4.41632 15.143 4.55444 14.8266 4.94239 14.4988C5.36694 14.2263 5.69594 14.1725 6.20318 14.2371C6.4491 14.3364 6.66947 14.4528 6.86676 14.6297C6.86676 14.6944 6.86676 14.7592 6.86676 14.8259C6.91056 14.8259 6.95435 14.8259 6.99948 14.8259C7.17577 15.1228 7.22589 15.3327 7.19855 15.6764C7.17665 15.6979 7.15475 15.7195 7.13219 15.7418C7.11348 15.8914 7.10248 16.041 7.09098 16.1913C7.06583 16.3305 7.06583 16.3305 6.93312 16.4614C6.90259 16.6055 6.90259 16.6055 6.89164 16.7639C6.88668 16.8174 6.88172 16.8709 6.87661 16.926C6.87173 16.9874 6.87173 16.9874 6.86676 17.0501C6.82296 17.0501 6.77917 17.0501 6.73404 17.0501C6.73678 17.1217 6.73952 17.1932 6.74234 17.2668C6.73404 17.5081 6.73404 17.5081 6.60133 17.7043C6.57121 17.8534 6.57121 17.8534 6.55986 18.011C6.55489 18.0639 6.54993 18.1167 6.54482 18.1712C6.53995 18.2316 6.53995 18.2316 6.53497 18.2931C6.49118 18.2931 6.44738 18.2931 6.40226 18.2931C6.39824 18.3443 6.39422 18.3955 6.39007 18.4482C6.38173 18.5475 6.38173 18.5475 6.37322 18.6488C6.36514 18.7479 6.36514 18.7479 6.35689 18.8489C6.3359 19.0127 6.3359 19.0127 6.26954 19.0781C6.25076 19.2448 6.2398 19.4115 6.22833 19.5787C6.20318 19.7323 6.20318 19.7323 6.07047 19.8632C6.04251 19.9901 6.04251 19.9901 6.03314 20.1289C6.00411 20.3865 6.00411 20.3865 5.93775 20.4519C5.91329 20.5605 5.89157 20.6696 5.87139 20.779C5.81241 21.0989 5.81241 21.0989 5.73868 21.1715C5.72501 21.2584 5.71437 21.3457 5.7055 21.4332C5.67969 21.6876 5.67969 21.6876 5.60596 21.7603C5.58718 21.927 5.57623 22.0936 5.56475 22.2609C5.53961 22.4145 5.53961 22.4145 5.40689 22.5453C5.37893 22.6722 5.37893 22.6722 5.36956 22.8111C5.34053 23.0687 5.34053 23.0687 5.27418 23.1341C5.24971 23.2426 5.22799 23.3518 5.20782 23.4612C5.14883 23.781 5.14883 23.781 5.0751 23.8537C5.06137 23.9515 5.05076 24.0498 5.04192 24.1481C5.01612 24.4352 5.01612 24.4352 4.94239 24.5079C4.92368 24.6575 4.91267 24.8071 4.90117 24.9574C4.87603 25.0967 4.87603 25.0967 4.74331 25.2275C4.71535 25.3544 4.71535 25.3544 4.70599 25.4933C4.67696 25.7509 4.67696 25.7509 4.6106 25.8163C4.59565 25.949 4.58089 26.0817 4.56938 26.2147C4.54424 26.3396 4.54424 26.3396 4.41153 26.4705C4.38336 26.6275 4.38336 26.6275 4.3742 26.8017C4.35162 27.1183 4.35162 27.1183 4.27881 27.1901C4.25444 27.2877 4.23269 27.3859 4.21245 27.4845C4.15347 27.7716 4.15347 27.7716 4.07974 27.8443C4.06084 28.0067 4.05 28.1691 4.03852 28.3321C4.01284 28.502 3.96096 28.6095 3.88066 28.7601C3.85495 28.9122 3.83223 29.0649 3.81431 29.2181C3.77051 29.2181 3.72671 29.2181 3.68159 29.2181C3.68313 29.259 3.68467 29.3 3.68626 29.3423C3.68745 29.3957 3.68865 29.4492 3.68989 29.5043C3.69143 29.5574 3.69296 29.6105 3.69455 29.6653C3.68159 29.8068 3.68159 29.8068 3.54888 29.9377C3.52091 30.0646 3.52091 30.0646 3.51155 30.2034C3.48252 30.461 3.48252 30.461 3.41616 30.5264C3.41346 30.6354 3.41333 30.7445 3.41616 30.8535C3.45996 30.8535 3.50375 30.8535 3.54888 30.8535C3.56667 30.8117 3.58446 30.7699 3.60279 30.7268C3.68159 30.5919 3.68159 30.5919 3.88066 30.5264C3.88066 30.4833 3.88066 30.4401 3.88066 30.3956C3.98513 30.2942 3.98513 30.2942 4.12536 30.1789C4.29195 30.04 4.45189 29.9014 4.6023 29.7455C4.74331 29.6106 4.74331 29.6106 4.87603 29.6106C4.89793 29.5458 4.91983 29.481 4.94239 29.4143C4.98618 29.4143 5.02998 29.4143 5.0751 29.4143C5.0751 29.3711 5.0751 29.328 5.0751 29.2835C5.17956 29.1797 5.17956 29.1797 5.3198 29.0627C5.36813 29.0223 5.41646 28.9819 5.46625 28.9403C5.53541 28.8835 5.53541 28.8835 5.60596 28.8256C5.66892 28.7729 5.73188 28.7203 5.79674 28.6661C5.93775 28.5639 5.93775 28.5639 6.07047 28.5639C6.08826 28.522 6.10605 28.4802 6.12438 28.4371C6.20318 28.3022 6.20318 28.3022 6.40226 28.2368C6.42415 28.1936 6.44605 28.1504 6.46861 28.1059C6.53497 27.9751 6.53497 27.9751 6.73404 27.9097C6.73404 27.8665 6.73404 27.8233 6.73404 27.7788C6.8455 27.6659 6.84551 27.6659 6.99118 27.5417C7.06278 27.4797 7.06278 27.4797 7.13582 27.4165C7.26491 27.3209 7.26491 27.3209 7.39762 27.3209C7.41952 27.2562 7.44142 27.1914 7.46398 27.1247C7.50778 27.1247 7.55157 27.1247 7.59669 27.1247C7.59669 27.0815 7.59669 27.0383 7.59669 26.9938C7.64049 26.9938 7.68429 26.9938 7.72941 26.9938C7.72941 26.9506 7.72941 26.9075 7.72941 26.863C7.83854 26.7523 7.83854 26.7523 7.9824 26.6299C8.02936 26.5894 8.07632 26.5488 8.1247 26.507C8.26027 26.4051 8.26027 26.4051 8.45934 26.3396C8.45934 26.2965 8.45934 26.2533 8.45934 26.2088C8.756 25.9471 8.756 25.9471 8.92385 25.9471C8.94164 25.9053 8.95943 25.8635 8.97776 25.8204C9.05656 25.6854 9.05656 25.6854 9.25564 25.62C9.25564 25.5768 9.25564 25.5337 9.25564 25.4892C9.3601 25.3877 9.3601 25.3877 9.50033 25.2725C9.66692 25.1335 9.82686 24.9949 9.97728 24.8391C10.1183 24.7042 10.1183 24.7042 10.251 24.7042C10.2729 24.6394 10.2948 24.5746 10.3174 24.5079C10.3612 24.5079 10.405 24.5079 10.4501 24.5079C10.4501 24.4647 10.4501 24.4216 10.4501 24.3771C10.4884 24.3609 10.5267 24.3447 10.5662 24.328C10.7211 24.2529 10.7211 24.2529 10.834 24.1225C11.1011 23.8717 11.4463 23.7454 11.7772 23.592C11.8525 23.5554 11.8525 23.5554 11.9294 23.5179C12.309 23.3396 12.703 23.2313 13.1083 23.1231C13.297 23.077 13.297 23.077 13.4362 23.0033C13.6768 22.9859 13.9171 22.9742 14.1581 22.9637C14.4364 22.9568 14.4364 22.9568 14.697 22.8724C14.8609 22.866 15.023 22.8635 15.1869 22.8638C15.2381 22.8637 15.2892 22.8636 15.3419 22.8634C15.5141 22.863 15.6864 22.8631 15.8586 22.8632C15.9818 22.863 16.105 22.8627 16.2281 22.8625C16.494 22.8619 16.7599 22.8616 17.0258 22.8614C17.447 22.861 17.8682 22.8599 18.2894 22.8587C18.4337 22.8583 18.5779 22.8579 18.7222 22.8575C18.8306 22.8571 18.8306 22.8571 18.9412 22.8568C19.9219 22.8541 20.9027 22.8519 21.8834 22.8511C22.5446 22.8506 23.2058 22.8491 23.867 22.8466C24.2166 22.8453 24.5662 22.8445 24.9159 22.8448C25.2456 22.8451 25.5753 22.8442 25.9051 22.8424C26.0253 22.8419 26.1456 22.8419 26.2658 22.8424C27.3571 22.8463 28.6781 22.7214 29.5611 22.022C29.6714 21.9561 29.782 21.8908 29.8929 21.8257C29.9627 21.7785 30.0325 21.7313 30.1044 21.6826C30.291 21.5641 30.291 21.5641 30.4237 21.5641C30.4415 21.5222 30.4593 21.4804 30.4777 21.4373C30.5565 21.3024 30.5565 21.3024 30.7555 21.237C30.7555 21.1938 30.7555 21.1506 30.7555 21.1061C31.041 20.7942 31.041 20.7942 31.2864 20.7136C31.3042 20.6691 31.322 20.6246 31.3403 20.5787C31.4157 20.3948 31.4955 20.2797 31.6182 20.1248C31.7671 19.9357 31.8767 19.7673 31.95 19.5361C31.9938 19.5361 32.0376 19.5361 32.0827 19.5361C32.1046 19.4281 32.1265 19.3202 32.149 19.209C32.1928 19.209 32.2366 19.209 32.2818 19.209C32.2763 19.1564 32.2708 19.1037 32.2652 19.0495C32.281 18.8275 32.3153 18.7253 32.4103 18.5303C32.5256 18.2927 32.5736 18.0997 32.5949 17.8393C32.6296 17.588 32.7241 17.3527 32.8126 17.1156C32.8564 17.1156 32.9002 17.1156 32.9453 17.1156C32.9438 17.0753 32.9422 17.0351 32.9407 16.9937C32.9395 16.9408 32.9383 16.8879 32.937 16.8334C32.9355 16.7811 32.934 16.7287 32.9324 16.6748C32.9453 16.5268 32.9453 16.5268 33.078 16.3305C33.1042 16.1785 33.1268 16.0258 33.1444 15.8726C33.1882 15.8726 33.232 15.8726 33.2771 15.8726C33.2756 15.8316 33.274 15.7906 33.2725 15.7484C33.2713 15.695 33.2701 15.6415 33.2688 15.5864C33.2673 15.5333 33.2657 15.4801 33.2642 15.4254C33.2771 15.2838 33.2771 15.2838 33.4098 15.153C33.4947 14.9068 33.5486 14.6707 33.5757 14.4129C33.6089 14.1717 33.6089 14.1717 33.7416 14.0409C33.7682 13.8889 33.7907 13.7362 33.808 13.5829C33.8518 13.5829 33.8956 13.5829 33.9407 13.5829C33.9392 13.5372 33.9376 13.4915 33.936 13.4444C33.9348 13.3849 33.9336 13.3254 33.9324 13.264C33.9301 13.1752 33.9301 13.1752 33.9277 13.0846C33.9407 12.9288 33.9407 12.9288 34.0734 12.7979C34.1 12.646 34.1225 12.4932 34.1398 12.34C34.1836 12.34 34.2274 12.34 34.2725 12.34C34.2709 12.2943 34.2694 12.2486 34.2678 12.2015C34.266 12.1122 34.266 12.1122 34.2642 12.0211C34.2619 11.9323 34.2619 11.9323 34.2595 11.8417C34.2725 11.6858 34.2725 11.6858 34.4052 11.555C34.4296 11.4027 34.4518 11.25 34.4716 11.097C34.4935 11.0754 34.5154 11.0539 34.5379 11.0316C34.5639 10.9327 34.587 10.8331 34.6084 10.7331C34.6201 10.6791 34.6319 10.625 34.6439 10.5693C34.6527 10.5276 34.6616 10.4858 34.6706 10.4428C34.7144 10.4428 34.7582 10.4428 34.8033 10.4428C34.8013 10.3315 34.8013 10.3315 34.7992 10.218C34.8033 9.98491 34.8033 9.98491 34.8697 9.91949C34.8847 9.78682 34.8994 9.6541 34.9109 9.5211C34.9361 9.39614 34.9361 9.39614 35.0688 9.2653C35.0992 9.13627 35.0992 9.13627 35.1103 8.99545C35.1185 8.91179 35.1267 8.82814 35.1351 8.74195C35.1789 8.74195 35.2227 8.74195 35.2679 8.74195C35.2637 8.61849 35.2637 8.61849 35.2596 8.49254C35.252 8.265 35.2639 8.22441 35.4006 8.02234C35.4231 7.86975 35.4452 7.7171 35.4669 7.56441C35.5112 7.47718 35.5554 7.38996 35.5996 7.30273C35.6232 7.1503 35.6455 6.99767 35.666 6.8448C35.6879 6.82321 35.7098 6.80162 35.7324 6.77938C35.7419 6.70517 35.7515 6.63096 35.7614 6.5545C35.7987 6.32145 35.7987 6.32145 35.9314 6.19061C35.9468 6.06508 35.9619 5.93949 35.9747 5.81368C36.0124 5.57453 36.0875 5.25176 36.2632 5.07849C36.2836 4.86786 36.2817 4.65621 36.284 4.44474C36.2859 4.38592 36.2878 4.3271 36.2898 4.2665C36.2934 3.88893 36.2504 3.67882 35.9978 3.3776C35.7987 3.06919 35.7987 3.06919 35.7987 2.91966C35.7549 2.90347 35.7111 2.88728 35.666 2.8706C35.4669 2.78883 35.4669 2.78883 35.2432 2.65493C34.8648 2.46895 34.4847 2.49113 34.0698 2.49436C33.983 2.494 33.8962 2.49364 33.8068 2.49327C33.567 2.4923 33.3271 2.49296 33.0872 2.4939C32.8281 2.49463 32.569 2.49385 32.3099 2.49326C31.8026 2.49235 31.2953 2.49284 30.788 2.49383C30.1966 2.49493 29.6052 2.49472 29.0138 2.49447C27.958 2.49409 26.9022 2.49502 25.8464 2.49663C24.8232 2.49819 23.8 2.49866 22.7769 2.49797C21.6618 2.49722 20.5467 2.4971 19.4317 2.49804C19.3126 2.49814 19.1935 2.49824 19.0744 2.49834C19.0158 2.49839 18.9572 2.49844 18.8969 2.49849C18.4853 2.4988 18.0737 2.49868 17.6621 2.4984C17.1597 2.49808 16.6574 2.49848 16.155 2.49977C15.899 2.50041 15.643 2.50075 15.387 2.50023C15.1087 2.49968 14.8304 2.50067 14.5521 2.50179C14.4722 2.5014 14.3924 2.501 14.3102 2.5006C13.5293 2.50629 12.7902 2.62469 12.109 3.0137C12.0627 3.03871 12.0165 3.06371 11.9688 3.08947C11.7573 3.2051 11.5535 3.32663 11.3542 3.46167C11.18 3.57385 11.18 3.57385 11.0473 3.57385C11.0254 3.63862 11.0035 3.70338 10.9809 3.77011C10.8524 3.91321 10.8524 3.91321 10.7155 4.03179C10.6717 4.03179 10.6279 4.03179 10.5828 4.03179C10.5602 4.08441 10.5602 4.08441 10.5372 4.13809C10.4501 4.29346 10.4501 4.29346 10.2883 4.47745C10.1107 4.68122 10.0213 4.8944 9.91921 5.14391C9.87462 5.21947 9.82898 5.29443 9.78235 5.36878C9.63624 5.61162 9.57986 5.84987 9.52107 6.12519C9.47727 6.12519 9.43348 6.12519 9.38835 6.12519C9.38989 6.17882 9.39143 6.23246 9.39302 6.28772C9.39422 6.35821 9.39541 6.42871 9.39665 6.50135C9.39819 6.57117 9.39973 6.641 9.40131 6.71294C9.38829 6.91118 9.3469 7.00031 9.25564 7.17189C9.23478 7.33239 9.23477 7.33239 9.23905 7.49899C9.2387 7.55431 9.23836 7.60963 9.23801 7.66662C9.25686 7.83715 9.31036 7.93637 9.38835 8.08776C9.4065 8.23802 9.4065 8.23802 9.41324 8.3985C9.43719 8.69048 9.51084 8.89283 9.65534 9.14647C9.72014 9.2653 9.72014 9.2653 9.79065 9.482C9.83897 9.65953 9.83897 9.65953 9.96069 9.76412C9.9908 9.7938 10.0209 9.82349 10.0519 9.85407C10.0519 9.94042 10.0519 10.0268 10.0519 10.1157C10.1176 10.1373 10.1833 10.1589 10.251 10.1812C10.251 10.2243 10.251 10.2675 10.251 10.312C10.2948 10.312 10.3386 10.312 10.3837 10.312C10.3837 10.3552 10.3837 10.3984 10.3837 10.4428C10.4494 10.4644 10.5151 10.486 10.5828 10.5083C10.5828 10.5514 10.5828 10.5946 10.5828 10.6391C10.6197 10.6553 10.6567 10.6715 10.6948 10.6882C10.8482 10.7699 10.8482 10.7699 10.9962 10.8913C11.1956 11.0435 11.3946 11.1527 11.6196 11.2647C11.6944 11.3025 11.7692 11.3404 11.8462 11.3794C12.5194 11.6763 13.1576 11.714 13.883 11.7127C14.0564 11.7124 14.2296 11.7133 14.4029 11.7145C14.8329 11.7173 15.2628 11.7181 15.6928 11.7189C16.0575 11.7196 16.4222 11.7212 16.7869 11.7237C16.9569 11.7246 17.1268 11.7244 17.2968 11.724C17.4017 11.7247 17.5066 11.7253 17.6116 11.726C17.6814 11.7254 17.6814 11.7254 17.7527 11.7248C18.1046 11.7291 18.3611 11.8079 18.6784 11.9475C18.8319 12.1028 18.8319 12.1028 18.9439 12.2746C19.0013 12.3434 19.0013 12.3434 19.06 12.4136C19.1882 12.7043 19.1823 13.0085 19.1429 13.3213C19.0991 13.3644 19.0553 13.4076 19.0102 13.4521C18.9797 13.5962 18.9797 13.5962 18.9687 13.7547C18.9638 13.8081 18.9588 13.8616 18.9537 13.9167C18.9505 13.9577 18.9472 13.9987 18.9439 14.0409C18.9001 14.0409 18.8563 14.0409 18.8111 14.0409C18.8111 14.1272 18.8111 14.2136 18.8111 14.3026C18.8842 14.2663 18.9572 14.23 19.0325 14.1927C19.369 14.0269 19.7078 13.8658 20.0471 13.7056C20.1461 13.6589 20.1461 13.6589 20.2471 13.6112C20.7711 13.3648 21.2983 13.1258 21.8281 12.8919C22.2213 12.7177 22.6071 12.5318 22.9917 12.34C23.0883 12.2926 23.185 12.2453 23.2817 12.1982C23.3266 12.1762 23.3715 12.1542 23.4177 12.1316C23.5087 12.087 23.5998 12.0426 23.6909 11.9982C23.8863 11.9023 24.0706 11.8053 24.2525 11.6858C24.19 11.6463 24.1276 11.6069 24.0632 11.5662C23.9798 11.5134 23.8963 11.4606 23.8129 11.4078C23.7719 11.3819 23.7309 11.356 23.6887 11.3293C23.6277 11.2907 23.6277 11.2907 23.5656 11.2514C23.5249 11.2256 23.4842 11.1999 23.4422 11.1734C23.3313 11.102 23.222 11.0281 23.113 10.9539C22.9461 10.8485 22.8047 10.7827 22.6184 10.7209C22.2783 10.5917 21.9994 10.4117 21.7003 10.2083C20.9857 9.72282 20.2448 9.26727 19.4747 8.87279C18.3058 8.27094 18.3058 8.27094 18.0149 7.62983C17.9643 7.27483 18.0403 7.02674 18.2139 6.71396C18.4904 6.41583 18.8866 6.28995 19.2756 6.19061C19.512 6.19061 19.512 6.19061 19.7402 6.25603C19.7851 6.26868 19.83 6.28133 19.8762 6.29436C20.5462 6.51859 21.1376 6.96659 21.7138 7.36227C21.9501 7.52435 22.1643 7.64863 22.4359 7.74431C22.8894 7.91065 23.2673 8.19468 23.6636 8.46264C23.8504 8.58739 24.0403 8.70603 24.2317 8.82372C24.2936 8.86184 24.3554 8.89996 24.4191 8.93923C24.6158 9.05415 24.8197 9.15166 25.0252 9.25048C25.4482 9.45696 25.8452 9.69452 26.2432 9.94402C26.3126 9.98723 26.382 10.0304 26.4535 10.075C26.6492 10.1971 26.8444 10.3198 27.0395 10.4428C27.0873 10.4728 27.135 10.5028 27.1842 10.5337C28.0709 11.0921 28.0709 11.0921 28.236 11.4356C28.3391 11.8989 28.235 12.1746 28.0017 12.5771C27.5654 12.9858 26.9649 13.1889 26.4177 13.4145C26.0192 13.585 25.6344 13.7804 25.2478 13.9755C24.9478 14.1263 24.6457 14.2703 24.3396 14.4089C23.9427 14.5885 23.5478 14.7719 23.1534 14.9567C23.0929 14.9851 23.0324 15.0135 22.97 15.0427C22.6514 15.1925 22.3352 15.3456 22.0212 15.5046C21.7792 15.6259 21.5396 15.7241 21.283 15.8113C21.0624 15.8864 20.8755 15.9656 20.6816 16.0934C20.3795 16.2922 20.0519 16.4195 19.7176 16.557C19.2248 16.7612 18.7409 16.9845 18.2637 17.2219C18.2103 17.2479 18.1569 17.274 18.1019 17.3008C18.0026 17.3503 17.9044 17.4018 17.8075 17.4557C17.3635 17.685 16.9153 17.7065 16.4223 17.6389C16.202 17.5544 16.0147 17.4503 15.825 17.3118C15.825 17.2686 15.825 17.2255 15.825 17.181C15.7813 17.181 15.7375 17.181 15.6923 17.181C15.6704 17.073 15.6485 16.9651 15.626 16.8539C15.5822 16.8539 15.5384 16.8539 15.4933 16.8539C15.4933 16.638 15.4933 16.4221 15.4933 16.1997C15.5371 16.1997 15.5809 16.1997 15.626 16.1997C15.6239 16.0742 15.6239 16.0742 15.6218 15.9462C15.6177 15.6927 15.6177 15.6927 15.6923 15.5455C15.7361 15.5455 15.7799 15.5455 15.825 15.5455C15.8243 15.5038 15.8235 15.462 15.8227 15.419C15.8221 15.365 15.8215 15.3109 15.8209 15.2552C15.8201 15.2013 15.8194 15.1474 15.8186 15.0919C15.825 14.9567 15.825 14.9567 15.8914 14.8913C15.9101 14.7417 15.9211 14.5921 15.9326 14.4418C15.9578 14.3026 15.9578 14.3026 16.0905 14.1717C16.007 14.1708 15.9235 14.1698 15.8374 14.1688C15.5208 14.165 15.2042 14.1599 14.8876 14.1545C14.7518 14.1524 14.6161 14.1506 14.4803 14.1491C13.3556 14.1362 12.1799 14.1072 11.1137 13.7138C11.0636 13.6966 11.0136 13.6794 10.962 13.6617C10.2115 13.3874 9.49949 13.0228 8.92385 12.4708C8.865 12.425 8.80615 12.3791 8.74551 12.3318C8.57056 12.192 8.41287 12.0454 8.26027 11.8821C8.26027 11.8389 8.26027 11.7957 8.26027 11.7512C8.19458 11.7296 8.12888 11.708 8.0612 11.6858C7.82711 11.4401 7.61866 11.1818 7.59669 10.8354C7.5529 10.8354 7.5091 10.8354 7.46398 10.8354C7.44234 10.7919 7.4207 10.7485 7.3984 10.7037C7.22111 10.3469 7.22111 10.3469 7.01606 10.0054C6.90749 9.80733 6.89644 9.61765 6.86676 9.39614C6.82296 9.35296 6.77917 9.30978 6.73404 9.2653C6.7089 9.12603 6.7089 9.12603 6.69672 8.96683C6.69526 8.76939 6.69526 8.76939 6.60133 8.61111C6.59546 8.44619 6.59368 8.28308 6.59485 8.11817C6.59494 8.06889 6.59504 8.01961 6.59513 7.96884C6.59551 7.81086 6.59634 7.65288 6.59718 7.4949C6.59751 7.38804 6.59782 7.28118 6.59809 7.17432C6.59882 6.91183 6.59997 6.64935 6.60133 6.38687C6.64513 6.38687 6.68892 6.38687 6.73404 6.38687C6.7325 6.34116 6.73097 6.29545 6.72938 6.24836C6.72818 6.18883 6.72698 6.12929 6.72575 6.06795C6.72421 6.00875 6.72267 5.94955 6.72108 5.88856C6.73404 5.73268 6.73404 5.73268 6.86676 5.60184C6.89333 5.44989 6.91585 5.29716 6.93312 5.14391C6.97691 5.14391 7.02071 5.14391 7.06583 5.14391C7.0631 5.09263 7.06036 5.04136 7.05754 4.98854C7.06583 4.81681 7.06583 4.81681 7.19855 4.68597C7.2465 4.55705 7.29436 4.42809 7.34137 4.29883C7.42201 4.10356 7.54048 3.94222 7.66305 3.77011C7.70946 3.69151 7.75507 3.61244 7.79991 3.53297C7.90078 3.35975 7.99395 3.20018 8.12756 3.0505C8.17135 3.0505 8.21515 3.0505 8.26027 3.0505C8.26027 2.98574 8.26027 2.92097 8.26027 2.85425C8.30407 2.85425 8.34786 2.85425 8.39299 2.85425C8.41762 2.79353 8.41762 2.79353 8.44275 2.73158C8.54146 2.56617 8.62104 2.54557 8.79113 2.46173C8.81055 2.42201 8.82997 2.38229 8.84997 2.34137C9.03797 1.98176 9.44151 1.74495 9.7865 1.54587C9.88093 1.47143 9.97488 1.3964 10.0685 1.32099C10.3106 1.13314 10.5404 1.00194 10.8254 0.888867C10.9828 0.827828 10.9828 0.827828 11.1365 0.74934C12.1904 0.231415 13.4223 0.0209886 14.5896 0.0232968Z" fill="white"/>
</svg>
